<svg width="12" height="13" viewBox="0 0 12 13" fill="none" xmlns="http://www.w3.org/2000/svg">
<path d="M10.9216 4.34304C10.8643 4.37646 9.50031 5.08186 9.50031 6.64589C9.56459 8.42957 11.2216 9.05509 11.25 9.05509C11.2216 9.08852 10.9998 9.90721 10.343 10.7654C9.82174 11.5047 9.24316 12.25 8.36459 12.25C7.52887 12.25 7.22887 11.7573 6.26458 11.7573C5.22902 11.7573 4.93601 12.25 4.14315 12.25C3.26458 12.25 2.64315 11.4647 2.09345 10.7324C1.37932 9.77395 0.772333 8.26982 0.750905 6.8256C0.736464 6.0603 0.893917 5.30802 1.29361 4.66904C1.85774 3.77699 2.86489 3.17143 3.96473 3.15146C4.80744 3.12498 5.55744 3.6906 6.07173 3.6906C6.56458 3.6906 7.48601 3.15146 8.52856 3.15146C8.97857 3.1519 10.1786 3.27822 10.9216 4.34304ZM6.00045 2.99866C5.85045 2.29978 6.26458 1.60089 6.6503 1.15508C7.14316 0.615938 7.92158 0.25 8.59285 0.25C8.63571 0.948886 8.36412 1.63432 7.87872 2.13352C7.44316 2.67266 6.69316 3.07853 6.00045 2.99866Z" fill="white"/>
</svg>
